<?xml version="1.0" encoding="UTF-8" standalone="no"?>
<!-- Created with Inkscape (http://www.inkscape.org/) -->

<svg
   xmlns:dc="http://purl.org/dc/elements/1.1/"
   xmlns:cc="http://creativecommons.org/ns#"
   xmlns:rdf="http://www.w3.org/1999/02/22-rdf-syntax-ns#"
   xmlns:svg="http://www.w3.org/2000/svg"
   xmlns="http://www.w3.org/2000/svg"
   xmlns:sodipodi="http://sodipodi.sourceforge.net/DTD/sodipodi-0.dtd"
   xmlns:inkscape="http://www.inkscape.org/namespaces/inkscape"
   width="750"
   height="750"
   id="svg2"
   version="1.1"
   inkscape:version="0.48.2 r9819"
   sodipodi:docname="New document 1">
  <defs
     id="defs4">
    <marker
       inkscape:stockid="Arrow2Mend"
       orient="auto"
       refY="0.0"
       refX="0.0"
       id="Arrow2Mend"
       style="overflow:visible;">
      <path
         id="path3953"
         style="font-size:12.0;fill-rule:evenodd;stroke-width:0.62500000;stroke-linejoin:round;"
         d="M 8.7185878,4.0337352 L -2.2072895,0.016013256 L 8.7185884,-4.0017078 C 6.9730900,-1.6296469 6.9831476,1.6157441 8.7185878,4.0337352 z "
         transform="scale(0.6) rotate(180) translate(0,0)" />
    </marker>
    <marker
       inkscape:stockid="Arrow2Lend"
       orient="auto"
       refY="0.0"
       refX="0.0"
       id="Arrow2Lend"
       style="overflow:visible;">
      <path
         id="path3947"
         style="font-size:12.0;fill-rule:evenodd;stroke-width:0.62500000;stroke-linejoin:round;"
         d="M 8.7185878,4.0337352 L -2.2072895,0.016013256 L 8.7185884,-4.0017078 C 6.9730900,-1.6296469 6.9831476,1.6157441 8.7185878,4.0337352 z "
         transform="scale(1.1) rotate(180) translate(1,0)" />
    </marker>
    <marker
       inkscape:stockid="Arrow1Lend"
       orient="auto"
       refY="0.0"
       refX="0.0"
       id="Arrow1Lend"
       style="overflow:visible;">
      <path
         id="path3929"
         d="M 0.0,0.0 L 5.0,-5.0 L -12.5,0.0 L 5.0,5.0 L 0.0,0.0 z "
         style="fill-rule:evenodd;stroke:#000000;stroke-width:1.0pt;marker-start:none;"
         transform="scale(0.8) rotate(180) translate(12.5,0)" />
    </marker>
    <marker
       inkscape:stockid="Arrow2Mend"
       orient="auto"
       refY="0"
       refX="0"
       id="Arrow2Mend-3"
       style="overflow:visible">
      <path
         inkscape:connector-curvature="0"
         id="path3953-5"
         style="font-size:12px;fill-rule:evenodd;stroke-width:0.625;stroke-linejoin:round"
         d="M 8.7185878,4.0337352 -2.2072895,0.01601326 8.7185884,-4.0017078 c -1.7454984,2.3720609 -1.7354408,5.6174519 -6e-7,8.035443 z"
         transform="scale(-0.6,-0.6)" />
    </marker>
    <marker
       inkscape:stockid="Arrow2Mend"
       orient="auto"
       refY="0"
       refX="0"
       id="Arrow2Mend-1"
       style="overflow:visible">
      <path
         inkscape:connector-curvature="0"
         id="path3953-53"
         style="font-size:12px;fill-rule:evenodd;stroke-width:0.625;stroke-linejoin:round"
         d="M 8.7185878,4.0337352 -2.2072895,0.01601326 8.7185884,-4.0017078 c -1.7454984,2.3720609 -1.7354408,5.6174519 -6e-7,8.035443 z"
         transform="scale(-0.6,-0.6)" />
    </marker>
  </defs>
  <sodipodi:namedview
     id="base"
     pagecolor="#ffffff"
     bordercolor="#666666"
     borderopacity="1.0"
     inkscape:pageopacity="0.0"
     inkscape:pageshadow="2"
     inkscape:zoom="0.70710678"
     inkscape:cx="198.67143"
     inkscape:cy="379.94086"
     inkscape:document-units="px"
     inkscape:current-layer="layer1"
     showgrid="false"
     inkscape:window-width="1440"
     inkscape:window-height="791"
     inkscape:window-x="0"
     inkscape:window-y="0"
     inkscape:window-maximized="1" />
  <metadata
     id="metadata7">
    <rdf:RDF>
      <cc:Work
         rdf:about="">
        <dc:format>image/svg+xml</dc:format>
        <dc:type
           rdf:resource="http://purl.org/dc/dcmitype/StillImage" />
        <dc:title></dc:title>
      </cc:Work>
    </rdf:RDF>
  </metadata>
  <g
     inkscape:label="Layer 1"
     inkscape:groupmode="layer"
     id="layer1"
     transform="translate(0,-302.36218)">
    <flowRoot
       xml:space="preserve"
       id="flowRoot2985"
       style="font-size:40px;font-style:normal;font-variant:normal;font-weight:normal;font-stretch:normal;line-height:125%;letter-spacing:0px;word-spacing:0px;fill:#000000;fill-opacity:1;stroke:none;font-family:Handlee;-inkscape-font-specification:Handlee"
       transform="matrix(0.98933173,-0.1456802,0.1456802,0.98933173,186.59539,352.80114)"><flowRegion
         id="flowRegion2987"><rect
           id="rect2989"
           width="420"
           height="148.57143"
           x="285.71429"
           y="135.71428" /></flowRegion><flowPara
         id="flowPara2991">This is you</flowPara></flowRoot>    <flowRoot
       xml:space="preserve"
       id="flowRoot2993"
       style="font-size:40px;font-style:normal;font-variant:normal;font-weight:normal;font-stretch:normal;line-height:125%;letter-spacing:0px;word-spacing:0px;fill:#000000;fill-opacity:1;stroke:none;font-family:Handlee;-inkscape-font-specification:Handlee"
       transform="matrix(0.9953318,-0.09651223,0.09651223,0.9953318,-62.323152,269.59648)"><flowRegion
         id="flowRegion2995"><rect
           id="rect2997"
           width="217.14285"
           height="104.28571"
           x="91.428574"
           y="310" /></flowRegion><flowPara
         id="flowPara2999">This is a box</flowPara></flowRoot>    <flowRoot
       xml:space="preserve"
       id="flowRoot3001"
       style="font-size:40px;font-style:normal;font-variant:normal;font-weight:normal;font-stretch:normal;line-height:125%;letter-spacing:0px;word-spacing:0px;fill:#000000;fill-opacity:1;stroke:none;font-family:Handlee;-inkscape-font-specification:Handlee"
       transform="matrix(0.99745586,0.0712868,-0.0712868,0.99745586,52.284288,260.33039)"><flowRegion
         id="flowRegion3003"><rect
           id="rect3005"
           width="451.42856"
           height="105.71429"
           x="375.71429"
           y="350" /></flowRegion><flowPara
         id="flowPara3007"
         style="font-size:32px">...which you</flowPara><flowPara
         style="font-size:32px"
         id="flowPara4967">      should push here</flowPara></flowRoot>    <flowRoot
       xml:space="preserve"
       id="flowRoot3009"
       style="font-size:40px;font-style:normal;font-variant:normal;font-weight:normal;font-stretch:normal;line-height:125%;letter-spacing:0px;word-spacing:0px;fill:#000000;fill-opacity:1;stroke:none;font-family:Handlee;-inkscape-font-specification:Handlee"
       transform="translate(-17.172593,346.80889)"><flowRegion
         id="flowRegion3011"><rect
           id="rect3013"
           width="458.57144"
           height="104.2857"
           x="67.14286"
           y="477.14285" /></flowRegion><flowPara
         id="flowPara3015"
         style="font-size:32px">Tap on anything you want to push</flowPara></flowRoot>    <flowRoot
       xml:space="preserve"
       id="flowRoot3017"
       style="font-size:40px;font-style:normal;font-variant:normal;font-weight:normal;font-stretch:normal;line-height:125%;letter-spacing:0px;word-spacing:0px;fill:#000000;fill-opacity:1;stroke:none;font-family:Handlee;-inkscape-font-specification:Handlee"
       transform="translate(-2.0203051,362.97133)"><flowRegion
         id="flowRegion3019"><rect
           id="rect3021"
           width="401.42856"
           height="118.57143"
           x="322.85715"
           y="604.28571" /></flowRegion><flowPara
         id="flowPara3023"
         style="font-size:32px">...and where you want to push it</flowPara></flowRoot>    <flowRoot
       xml:space="preserve"
       id="flowRoot3025"
       style="fill:black;stroke:none;stroke-opacity:1;stroke-width:1px;stroke-linejoin:miter;stroke-linecap:butt;fill-opacity:1;font-family:Handlee;font-style:normal;font-weight:normal;font-size:40px;line-height:125%;letter-spacing:0px;word-spacing:0px;-inkscape-font-specification:Handlee;font-stretch:normal;font-variant:normal"><flowRegion
         id="flowRegion3027"><rect
           id="rect3029"
           width="112.85714"
           height="57.142857"
           x="344.28571"
           y="627.14288" /></flowRegion><flowPara
         id="flowPara3031"></flowPara></flowRoot>    <rect
       style="fill:#0000ff;fill-opacity:1;stroke:none"
       id="rect3033"
       width="80"
       height="80"
       x="344.95944"
       y="478.4231" />
    <path
       id="path2999"
       style="fill:none;stroke:#000000;stroke-width:15;stroke-linecap:round;stroke-linejoin:round;stroke-miterlimit:4;stroke-opacity:0.50196078;stroke-dasharray:none"
       d="m 583.39482,772.77961 -24,-24 m 0,24 24,-24"
       inkscape:connector-curvature="0" />
    <flowRoot
       xml:space="preserve"
       id="flowRoot3907"
       style="font-size:40px;font-style:normal;font-variant:normal;font-weight:normal;font-stretch:normal;line-height:125%;letter-spacing:0px;word-spacing:0px;fill:#000000;fill-opacity:1;stroke:none;font-family:Handlee;-inkscape-font-specification:Handlee"
       transform="translate(0,328.36218)"><flowRegion
         id="flowRegion3909"><rect
           id="rect3911"
           width="529.31995"
           height="121.21831"
           x="105.05586"
           y="0.46681136" /></flowRegion><flowPara
         id="flowPara3913"
         style="font-size:56px;text-align:center;text-anchor:middle">Instructions!</flowPara></flowRoot>    <path
       style="fill:none;stroke:#000000;stroke-width:3.79999995;stroke-linecap:butt;stroke-linejoin:miter;stroke-miterlimit:4;stroke-opacity:1;stroke-dasharray:none;marker-end:url(#Arrow2Mend)"
       d="M 595.99,473.54478 C 546.1558,504.52279 554.91045,575.90691 437.39604,522.0321"
       id="path3921"
       inkscape:connector-curvature="0"
       sodipodi:nodetypes="cc" />
    <path
       style="fill:none;stroke:#000000;stroke-width:3.79999995;stroke-linecap:butt;stroke-linejoin:miter;stroke-miterlimit:4;stroke-opacity:1;stroke-dasharray:none;marker-end:url(#Arrow2Mend)"
       d="m 147.58603,616.23761 c 34.68191,46.1303 101.68871,4.37733 153.5432,77.78174"
       id="path3921-9"
       inkscape:connector-curvature="0"
       sodipodi:nodetypes="cc" />
    <rect
       style="fill:#008000;fill-opacity:1;stroke:none"
       id="rect3033-6"
       width="80"
       height="80"
       x="254.96455"
       y="704.26556" />
    <path
       style="fill:none;stroke:#000000;stroke-width:3.79999995;stroke-linecap:butt;stroke-linejoin:miter;stroke-miterlimit:4;stroke-opacity:1;stroke-dasharray:11.39999986,11.39999986;marker-end:url(#Arrow2Mend);stroke-dashoffset:0"
       d="m 349.12927,740.5786 c 58.18183,28.20937 104.17231,-17.24906 184.13206,22.64069"
       id="path3921-9-9"
       inkscape:connector-curvature="0"
       sodipodi:nodetypes="cc" />
    <rect
       style="fill:#008000;fill-opacity:1;stroke:none"
       id="rect3033-6-6"
       width="80"
       height="80"
       x="177"
       y="884.86218" />
    <path
       id="path2999-1"
       style="fill:none;stroke:#000000;stroke-width:15;stroke-linecap:round;stroke-linejoin:round;stroke-miterlimit:4;stroke-opacity:0.50196078;stroke-dasharray:none"
       d="m 629.5,936.86218 -24,-24 m 0,24 24,-24"
       inkscape:connector-curvature="0" />
    <path
       sodipodi:type="arc"
       style="fill:#000000;fill-opacity:0.50196078;stroke:none"
       id="path5033"
       sodipodi:cx="255.56859"
       sodipodi:cy="634.84259"
       sodipodi:rx="17.172594"
       sodipodi:ry="16.162441"
       d="m 272.74118,634.84259 a 17.172594,16.162441 0 1 1 -34.34519,0 17.172594,16.162441 0 1 1 34.34519,0 z"
       transform="matrix(0.727904,0,0,0.77339801,111.4706,433.87618)" />
    <path
       sodipodi:type="arc"
       style="fill:#000000;fill-opacity:0.50196078;stroke:none"
       id="path5033-3"
       sodipodi:cx="255.56859"
       sodipodi:cy="634.84259"
       sodipodi:rx="17.172594"
       sodipodi:ry="16.162441"
       d="m 272.74118,634.84259 a 17.172594,16.162441 0 1 1 -34.34519,0 17.172594,16.162441 0 1 1 34.34519,0 z"
       transform="matrix(0.727904,0,0,0.77339801,31.470602,433.87618)" />
    <path
       sodipodi:type="arc"
       style="fill:#000000;fill-opacity:0.50196078;stroke:none"
       id="path5033-0"
       sodipodi:cx="255.56859"
       sodipodi:cy="634.84259"
       sodipodi:rx="17.172594"
       sodipodi:ry="16.162441"
       d="m 272.74118,634.84259 a 17.172594,16.162441 0 1 1 -34.34519,0 17.172594,16.162441 0 1 1 34.34519,0 z"
       transform="matrix(0.727904,0,0,0.77339801,271.4706,433.87618)" />
    <path
       sodipodi:type="arc"
       style="fill:#000000;fill-opacity:0.50196078;stroke:none"
       id="path5033-9"
       sodipodi:cx="255.56859"
       sodipodi:cy="634.84259"
       sodipodi:rx="17.172594"
       sodipodi:ry="16.162441"
       d="m 272.74118,634.84259 a 17.172594,16.162441 0 1 1 -34.34519,0 17.172594,16.162441 0 1 1 34.34519,0 z"
       transform="matrix(0.727904,0,0,0.77339801,351.4706,433.87618)" />
    <path
       sodipodi:type="arc"
       style="fill:#000000;fill-opacity:0.50196078;stroke:none"
       id="path5033-01"
       sodipodi:cx="255.56859"
       sodipodi:cy="634.84259"
       sodipodi:rx="17.172594"
       sodipodi:ry="16.162441"
       d="m 272.74118,634.84259 a 17.172594,16.162441 0 1 1 -34.34519,0 17.172594,16.162441 0 1 1 34.34519,0 z"
       transform="matrix(0.727904,0,0,0.77339801,431.4706,433.87618)" />
    <path
       sodipodi:type="arc"
       style="fill:#000000;fill-opacity:0.50196078;stroke:none"
       id="path5033-7"
       sodipodi:cx="255.56859"
       sodipodi:cy="634.84259"
       sodipodi:rx="17.172594"
       sodipodi:ry="16.162441"
       d="m 272.74118,634.84259 a 17.172594,16.162441 0 1 1 -34.34519,0 17.172594,16.162441 0 1 1 34.34519,0 z"
       transform="matrix(0.727904,0,0,0.77339801,191.4706,433.87618)" />
    <rect
       style="fill:#0000ff;fill-opacity:1;stroke:none"
       id="rect3033-2"
       width="80"
       height="80"
       x="97"
       y="884.86218" />
    <path
       sodipodi:type="arc"
       style="fill:#000000;fill-opacity:0.50196078;stroke:none"
       id="path5033-3-5"
       sodipodi:cx="255.56859"
       sodipodi:cy="634.84259"
       sodipodi:rx="17.172594"
       sodipodi:ry="16.162441"
       d="m 272.74118,634.84259 a 17.172594,16.162441 0 1 1 -34.34519,0 17.172594,16.162441 0 1 1 34.34519,0 z"
       transform="matrix(0.727904,0,0,0.77339801,-48.529398,433.87618)" />
    <path
       inkscape:connector-curvature="0"
       d="m 244.33361,1054.4409 19.11537,-45.2071 c 2.56523,-6.0667 -15.54145,-18.60052 -16.90618,-15.29033 l -5.55525,13.47463 8.02429,-19.46342 c 1.46336,-3.54954 -17.15943,-14.3743 -19.73177,-8.13489 l -6.01826,14.59756 6.64021,-16.10619 c -0.65618,-4.35923 -17.54472,-12.97883 -19.56934,-8.06795 l -7.10312,17.22912 21.76372,-52.78942 c 2.74445,-8.64027 -14.36071,-16.38705 -19.79623,-8.16149 l -32.25702,78.24148 8.80347,-21.35355 c 2.4002,-5.58623 -16.23511,-13.97832 -19.13062,-7.88719 l -9.26645,22.47659 1.74755,56.68555"
       style="fill:#ffffff;fill-opacity:1;stroke:#000000;stroke-width:6.83915234;stroke-linejoin:round;stroke-miterlimit:4;stroke-opacity:1"
       id="path6"
       sodipodi:nodetypes="csscssccscccccccc" />
    <path
       inkscape:connector-curvature="0"
       d="m 755.27651,786.90238 -30.56709,15.9458 -42.56708,5.44579 -42.54264,20.83063 c -5.91565,2.89653 -0.68801,24.22896 2.52769,22.65444 l 13.08994,-6.40937 -18.90776,9.25801 c -3.44818,1.6884 3.32441,22.13628 9.38568,19.16842 l 14.18085,-6.94347 -15.6464,7.66109 c -2.39749,3.69939 4.53773,21.34657 9.3084,19.01064 l 16.73722,-8.19524 -51.28228,25.10994 c -7.78123,4.65176 -0.10537,21.78886 9.41631,19.23106 l 76.00775,-37.21649 -20.74387,10.15712 c -5.49949,2.59278 2.89461,21.22718 9.09963,18.58453 l 21.83483,-10.69131 41.12126,-50.51473"
       style="fill:#ffffff;fill-opacity:1;stroke:#000000;stroke-width:6.83915234;stroke-linejoin:round;stroke-miterlimit:4;stroke-opacity:1"
       id="path6-5"
       sodipodi:nodetypes="cccsscssccscccccccc" />
  </g>
</svg>
